<?xml version="1.0" standalone="no"?>
<!DOCTYPE svg PUBLIC "-//W3C//DTD SVG 20010904//EN"
 "http://www.w3.org/TR/2001/REC-SVG-20010904/DTD/svg10.dtd">
<svg version="1.0" xmlns="http://www.w3.org/2000/svg"
 width="1638.000000pt" height="1638.000000pt" viewBox="0 0 1638.000000 1638.000000"
 preserveAspectRatio="xMidYMid meet">
<metadata>
Created by potrace 1.14, written by Peter Selinger 2001-2017
</metadata>
<g transform="translate(0.000000,1638.000000) scale(0.100000,-0.100000)"
fill="#000000" stroke="none">
<path d="M0 15895 l0 -485 198 198 c108 110 231 228 272 263 41 35 99 87 130
114 103 93 297 249 384 310 32 22 70 50 84 62 l27 22 -547 1 -548 0 0 -485z"/>
<path d="M6280 16376 c0 -3 46 -35 103 -72 56 -36 104 -70 107 -73 3 -4 55
-45 115 -91 61 -46 115 -89 121 -94 6 -6 22 -18 34 -26 12 -8 28 -20 34 -25 6
-6 36 -30 66 -54 47 -37 133 -112 231 -202 14 -13 58 -53 99 -89 83 -74 426
-420 490 -495 24 -27 46 -52 49 -55 8 -6 115 -131 181 -210 25 -30 59 -70 76
-90 86 -98 359 -473 497 -682 86 -131 157 -239 157 -242 0 -2 39 -71 88 -153
106 -179 243 -455 306 -618 26 -66 53 -133 60 -150 15 -33 31 -81 77 -232 17
-57 35 -103 40 -103 4 0 24 28 44 63 19 34 40 69 45 77 5 8 20 35 33 60 14 25
34 61 46 80 11 19 29 51 40 70 40 72 239 382 311 485 41 58 80 114 85 123 17
28 165 222 260 342 238 298 617 689 850 875 28 22 52 42 55 45 16 17 230 177
315 235 220 150 525 318 745 410 36 15 74 31 85 36 58 24 106 42 155 58 454
149 786 199 1225 188 294 -8 449 -28 755 -99 87 -20 300 -86 365 -114 17 -7
62 -24 100 -39 64 -25 124 -52 275 -123 30 -14 97 -50 149 -79 51 -29 95 -53
97 -53 4 0 72 -43 204 -128 277 -180 655 -508 898 -782 l31 -35 1 1033 0 1032
-5050 0 c-2777 0 -5050 -2 -5050 -4z"/>
<path d="M3800 15404 c-351 -28 -588 -68 -840 -141 -47 -14 -98 -28 -115 -32
-47 -12 -294 -106 -397 -152 -165 -73 -202 -91 -268 -129 -36 -20 -91 -52
-123 -69 -31 -18 -107 -65 -168 -106 -61 -41 -113 -75 -116 -75 -5 0 -196
-145 -268 -204 -170 -139 -400 -359 -510 -486 -16 -20 -57 -67 -90 -105 -99
-114 -270 -339 -346 -455 -20 -30 -59 -89 -86 -130 -55 -83 -208 -357 -243
-435 -12 -27 -45 -97 -72 -155 -27 -58 -61 -134 -74 -170 -43 -111 -65 -164
-75 -185 -15 -31 -7 -5211 8 -5250 11 -30 27 -85 58 -205 30 -115 237 -764
261 -817 8 -17 14 -34 14 -37 0 -7 84 -224 104 -271 7 -16 21 -52 31 -80 9
-27 23 -63 30 -80 7 -16 21 -50 30 -75 10 -25 30 -72 45 -105 51 -111 107
-236 150 -335 35 -79 294 -594 335 -665 19 -33 38 -67 41 -75 4 -8 15 -26 24
-40 10 -14 27 -42 39 -63 11 -20 31 -54 42 -75 12 -20 29 -48 39 -62 9 -14 20
-32 24 -40 34 -74 423 -624 466 -660 3 -3 51 -61 105 -130 112 -142 202 -255
227 -285 203 -245 498 -597 508 -605 3 -3 64 -70 136 -150 126 -139 431 -449
566 -575 56 -53 122 -112 303 -275 27 -25 73 -63 100 -85 28 -22 61 -49 75
-61 143 -125 318 -261 580 -449 61 -44 116 -85 123 -91 12 -10 316 -212 472
-312 44 -28 87 -56 95 -62 8 -5 129 -75 268 -155 140 -79 276 -158 303 -175
l49 -30 3378 0 3377 0 38 48 c21 26 57 67 80 92 70 75 180 203 289 335 9 11
66 80 127 152 61 73 152 186 202 250 150 196 353 465 391 518 19 28 77 109
129 182 52 73 123 175 159 229 36 53 70 101 75 108 11 12 69 103 185 286 40
63 89 140 108 170 83 130 103 160 166 262 36 58 112 189 169 290 137 242 148
262 209 376 28 53 71 133 95 177 25 44 67 127 95 185 136 282 192 400 215 455
27 64 79 181 92 205 11 21 70 162 126 300 25 63 52 129 60 145 19 42 79 199
104 270 11 33 43 125 71 205 70 197 72 205 120 370 23 80 46 155 51 168 9 23
94 342 109 412 4 19 17 69 28 110 27 96 27 99 47 200 29 150 46 233 61 300 17
78 31 162 49 295 28 197 35 251 46 314 6 36 14 124 19 195 5 72 14 183 21 246
18 191 17 1057 -2 1250 -18 189 -30 290 -39 355 -5 39 -14 108 -20 155 -13
104 -27 192 -40 245 -5 22 -18 90 -30 150 -36 196 -81 387 -126 540 -8 28 -30
109 -49 180 -19 72 -60 202 -91 290 -31 88 -78 225 -106 305 -27 80 -54 150
-59 156 -5 6 -15 28 -23 50 -13 39 -22 59 -90 207 -20 44 -36 82 -36 86 0 11
-126 259 -165 326 -19 33 -38 67 -42 75 -46 103 -288 473 -415 636 -232 296
-519 538 -728 614 -36 13 -70 27 -75 31 -27 20 -176 42 -281 41 -87 -1 -131
-6 -203 -27 -78 -22 -234 -87 -251 -105 -3 -3 -37 -26 -75 -51 -185 -122 -385
-332 -550 -579 -28 -41 -53 -77 -56 -80 -3 -3 -28 -43 -55 -90 -27 -47 -54
-94 -61 -105 -7 -11 -15 -27 -19 -35 -4 -8 -26 -44 -47 -80 -86 -139 -257
-498 -353 -738 -41 -103 -81 -200 -89 -217 -7 -16 -23 -57 -34 -90 -19 -55
-70 -199 -107 -300 -8 -22 -24 -69 -35 -105 -12 -36 -34 -103 -49 -150 -15
-47 -38 -119 -50 -160 -12 -41 -26 -84 -30 -95 -4 -11 -18 -54 -30 -95 -12
-41 -28 -93 -35 -115 -6 -22 -20 -76 -30 -120 -18 -77 -37 -115 -58 -115 -9 0
-759 319 -882 375 -27 13 -111 49 -185 80 -74 32 -141 61 -150 65 -8 5 -87 38
-175 75 -88 37 -173 73 -190 80 -16 8 -136 58 -265 113 -129 55 -261 112 -292
126 -31 14 -59 26 -63 26 -3 0 -36 14 -73 31 -37 17 -82 37 -100 45 -68 28
-98 42 -142 62 -25 11 -79 35 -120 52 -129 54 -231 97 -345 145 -60 25 -138
57 -171 71 -34 14 -71 35 -82 47 -17 18 -70 171 -114 327 -13 46 -32 103 -58
170 -12 30 -25 66 -30 80 -5 14 -18 50 -30 80 -12 30 -26 69 -31 85 -5 17 -13
39 -19 50 -14 29 -74 164 -91 205 -33 81 -263 534 -323 635 -100 170 -278 439
-345 521 -14 17 -55 69 -91 115 -36 46 -94 117 -130 159 -36 41 -76 88 -90
105 -58 71 -326 331 -411 400 -13 11 -51 43 -84 71 -33 28 -109 87 -170 132
-60 45 -114 85 -120 89 -29 23 -312 203 -319 203 -3 0 -53 26 -113 58 -278
150 -704 302 -1013 362 -157 31 -215 39 -405 60 -104 12 -417 21 -495 14z
m-2052 -7880 c-3 -128 -5 -149 -19 -152 -13 -2 -18 8 -23 41 -14 93 -86 168
-203 209 -68 23 -120 23 -160 -2 -34 -21 -47 -49 -41 -96 3 -32 37 -57 230
-169 188 -109 234 -174 226 -320 -5 -80 -13 -102 -55 -162 -53 -72 -205 -133
-335 -133 -73 0 -157 26 -202 61 l-27 21 -53 -41 c-29 -23 -56 -41 -59 -41 -4
0 -7 81 -7 180 0 147 3 180 14 180 9 0 18 -21 25 -61 17 -101 80 -182 179
-233 79 -41 191 -29 236 25 53 62 22 113 -112 186 -183 98 -260 167 -294 261
-45 124 2 261 116 336 76 50 114 59 225 54 77 -4 108 -10 158 -32 l62 -28 53
41 c29 22 56 37 61 32 4 -4 6 -75 5 -157z m6985 127 c67 -41 82 -128 37 -216
-32 -62 -86 -92 -182 -101 -57 -6 -68 -4 -68 8 0 18 29 28 80 28 47 0 101 30
124 69 23 39 18 46 -20 26 -43 -22 -130 -19 -170 6 -42 26 -54 47 -54 96 0 42
31 82 80 102 38 16 134 6 173 -18z m2100 5 c79 -34 115 -118 80 -186 -21 -41
-54 -60 -106 -60 -75 0 -116 40 -117 114 0 41 5 53 34 82 41 41 17 49 -27 8
-36 -33 -47 -63 -47 -122 0 -95 72 -172 160 -172 62 0 111 -10 104 -21 -3 -5
-25 -9 -50 -9 l-44 0 0 -250 0 -250 45 0 c57 0 59 -17 3 -25 -77 -11 -431 -1
-435 12 -3 8 11 13 39 15 l43 3 0 245 0 245 -35 3 c-19 2 -39 8 -44 13 -10 9
0 12 54 13 24 1 25 3 31 91 6 100 24 147 73 196 63 63 165 87 239 55z m2846
-14 c64 -47 45 -135 -39 -180 -37 -19 -56 -23 -109 -20 -55 4 -67 8 -87 32
-29 33 -32 91 -6 122 56 69 179 93 241 46z m-9129 -417 l0 -435 41 0 c28 0 39
-4 37 -12 -4 -10 -58 -13 -222 -15 -120 -1 -224 1 -232 4 -27 10 -13 23 26 23
l40 0 0 414 0 415 -37 3 c-20 2 -38 9 -40 15 -4 10 36 13 164 16 92 1 180 4
196 5 l27 2 0 -435z m2092 3 l3 -433 38 -3 c24 -2 37 -8 37 -18 0 -12 -29 -14
-174 -14 -96 0 -181 -3 -190 -6 -12 -5 -16 0 -16 20 0 14 -2 26 -5 26 -3 0
-28 -11 -55 -25 -66 -33 -146 -34 -215 -1 -102 48 -150 132 -150 266 0 127 46
214 137 261 46 24 157 26 218 4 73 -26 70 -33 70 149 l0 165 -42 3 c-23 2 -43
9 -45 15 -4 9 34 13 154 16 87 1 175 4 195 5 l38 2 2 -432z m1210 0 l3 -433
38 -3 c22 -2 37 -8 37 -16 0 -10 -45 -12 -217 -11 -254 3 -243 2 -243 14 0 6
17 11 38 13 l37 3 3 413 2 412 -40 0 c-29 0 -40 4 -40 15 0 12 27 15 163 18
89 1 174 4 189 5 l28 2 2 -432z m480 0 l3 -433 43 -3 c46 -3 56 -18 18 -28
-13 -3 -117 -4 -231 -2 -155 2 -209 6 -213 16 -2 8 9 12 37 12 l41 0 0 414 0
415 -37 3 c-20 2 -38 9 -40 15 -4 9 35 13 159 16 90 1 175 4 190 5 l28 2 2
-432z m1148 407 c0 -11 -12 -15 -50 -15 l-50 0 0 -410 0 -410 49 0 c28 0 53
-5 56 -10 15 -24 -57 -31 -319 -28 -233 3 -271 5 -271 18 0 11 13 16 48 18
l47 3 0 410 0 409 -50 0 c-38 0 -50 4 -50 15 0 13 39 15 295 15 256 0 295 -2
295 -15z m-6642 -547 c2 -216 4 -238 20 -247 12 -7 28 -5 50 6 l32 15 0 214 0
214 -36 0 c-24 0 -34 4 -32 12 3 9 37 14 109 15 57 2 139 5 181 7 l78 4 2
-266 3 -267 38 -3 c20 -2 37 -7 37 -12 0 -15 -79 -21 -230 -18 l-145 3 -3 32
-3 32 -42 -26 c-123 -78 -297 -68 -344 19 -15 28 -18 65 -21 251 l-4 217 -29
0 c-16 0 -29 4 -29 9 0 13 47 18 194 20 72 1 133 4 135 7 3 3 12 3 21 2 13 -3
15 -36 18 -240z m1068 214 c136 -43 214 -143 214 -276 0 -171 -117 -263 -345
-273 -186 -9 -312 41 -379 151 -27 43 -30 57 -30 120 1 40 8 87 17 107 31 75
111 142 202 171 76 25 242 25 321 0z m6012 -15 l3 -36 61 32 c84 43 194 51
263 17 77 -37 79 -44 85 -290 l5 -215 38 -3 c23 -2 37 -8 37 -17 0 -11 -38
-14 -210 -14 -176 0 -210 3 -210 15 0 8 9 14 20 14 19 0 20 7 20 214 0 182 -2
217 -16 230 -19 20 -18 20 -60 0 l-34 -16 0 -214 c0 -210 0 -214 21 -214 12 0
19 -5 16 -12 -5 -18 -408 -19 -414 -1 -3 7 10 13 34 15 l38 3 0 245 0 245 -42
3 c-24 2 -43 7 -43 13 0 11 -25 9 180 16 96 3 177 7 179 9 13 12 26 -7 29 -39z
m2220 0 l3 -37 62 33 c116 60 274 46 324 -29 16 -24 19 -57 23 -244 l5 -215
38 -3 c22 -2 37 -8 37 -16 0 -11 -43 -14 -209 -15 -206 -2 -257 6 -197 29 l26
10 0 197 c0 109 -3 208 -6 220 -8 30 -30 36 -70 17 l-34 -16 0 -214 c0 -207 1
-214 20 -214 11 0 20 -7 20 -14 0 -13 -33 -15 -212 -13 -153 1 -212 5 -215 14
-3 8 11 13 39 15 l43 3 0 245 0 245 -42 3 c-46 3 -57 17 -20 25 12 3 92 6 177
7 84 0 156 3 159 6 13 12 26 -6 29 -39z m1586 27 c3 -9 6 -130 6 -270 l0 -254
40 0 c39 0 53 -13 26 -23 -19 -8 -432 -8 -451 -1 -26 10 -5 24 36 24 l39 0 0
250 0 250 -40 0 c-22 0 -40 5 -40 10 0 13 -20 11 170 17 91 3 167 7 169 9 11
10 39 2 45 -12z m-11413 -6 c51 -15 106 -69 114 -111 21 -113 -117 -182 -189
-96 -55 65 -11 168 71 169 17 1 17 1 0 11 -9 6 -40 10 -68 11 -82 0 -83 -3
-87 -209 -5 -263 3 -293 79 -293 52 0 98 20 147 64 26 24 43 33 47 26 9 -15
-39 -65 -95 -98 -42 -25 -53 -27 -160 -27 -104 0 -120 3 -173 27 -63 30 -108
72 -139 132 -30 58 -29 168 1 227 41 79 111 135 204 164 53 17 197 19 248 3z
m2877 -3 c80 -19 140 -57 158 -100 10 -25 14 -79 14 -200 0 -97 4 -165 9 -165
6 0 17 10 25 22 12 16 19 19 27 11 17 -17 -16 -59 -70 -91 -40 -24 -57 -27
-131 -27 -74 0 -89 3 -119 24 l-33 24 -47 -23 c-63 -31 -171 -38 -239 -16 -90
30 -138 112 -112 190 26 79 126 121 269 114 47 -3 94 -9 104 -13 15 -6 17 1
17 76 0 46 -3 94 -6 107 -9 31 -53 52 -111 52 l-48 -1 22 -18 c48 -40 55 -105
18 -149 -66 -79 -195 -36 -195 65 0 55 36 98 98 117 64 20 268 20 350 1z
m2070 -16 c72 -35 124 -94 153 -169 32 -85 41 -80 -156 -80 l-175 0 0 -97 c1
-61 5 -104 13 -114 49 -63 154 -40 259 58 50 48 69 51 50 9 -16 -37 -104 -102
-169 -126 -48 -18 -74 -21 -148 -18 -104 5 -176 32 -243 92 -110 99 -108 272
5 377 79 74 144 98 264 99 76 0 93 -3 147 -31z m4217 20 c66 -12 131 -42 157
-72 30 -34 38 -86 38 -244 0 -84 3 -153 6 -153 3 0 14 10 24 23 14 16 21 19
30 11 18 -18 -51 -89 -105 -110 -63 -24 -173 -16 -215 14 l-31 23 -64 -25
c-117 -47 -231 -32 -304 40 -43 43 -43 45 -39 99 9 110 103 162 272 152 50 -2
98 -6 106 -8 13 -3 15 11 14 90 -1 92 -2 95 -30 118 -21 17 -42 23 -76 23 -27
0 -48 -2 -48 -5 0 -2 11 -15 25 -29 34 -34 35 -103 2 -141 -49 -57 -154 -39
-184 33 -28 68 13 136 98 160 47 14 253 14 324 1z m1803 2 c16 -10 20 -3 -138
-292 -61 -112 -112 -208 -113 -214 -3 -18 57 -5 121 27 67 32 93 62 114 131 6
20 17 37 25 37 11 0 13 -23 11 -117 l-3 -118 -309 -3 c-170 -1 -313 1 -318 6
-4 4 29 72 74 152 159 286 198 357 198 364 0 8 -42 -1 -98 -21 -48 -17 -106
-84 -117 -136 -8 -37 -24 -59 -36 -51 -9 5 -13 226 -5 235 9 8 581 9 594 0z
m1102 -10 c146 -39 160 -65 160 -293 0 -93 4 -168 8 -168 5 0 17 9 27 20 29
33 41 7 15 -30 -55 -77 -200 -104 -295 -55 l-49 24 -45 -21 c-58 -26 -174 -35
-227 -18 -175 56 -174 245 3 296 57 17 206 16 246 -1 15 -6 17 1 17 83 0 50
-3 98 -6 107 -10 25 -58 45 -109 45 -46 0 -60 -14 -26 -25 24 -7 45 -67 36
-103 -9 -39 -43 -71 -82 -78 -45 -8 -75 1 -106 32 -21 21 -27 36 -27 72 0 38
5 49 34 77 47 44 83 53 227 54 94 1 143 -4 199 -18z m-9972 -1353 c-3 -136 -5
-153 -20 -156 -14 -3 -18 3 -18 25 0 16 -12 54 -27 84 -84 165 -383 215 -383
64 0 -47 21 -67 140 -135 275 -156 320 -207 320 -364 0 -81 -32 -158 -86 -205
-128 -113 -367 -135 -498 -46 l-38 25 -50 -40 c-28 -22 -55 -40 -59 -40 -5 0
-9 81 -9 181 0 163 2 180 17 177 9 -2 17 -12 19 -23 11 -79 18 -105 39 -141
48 -82 167 -154 255 -154 52 0 115 26 134 55 42 64 6 112 -150 197 -135 74
-215 141 -250 211 -73 144 -16 307 138 392 50 28 59 30 168 30 106 0 120 -2
177 -29 l62 -28 48 35 c26 20 54 37 61 37 10 0 12 -34 10 -152z m4093 136 c30
-9 70 -25 89 -36 l35 -21 59 32 c32 17 63 31 68 31 5 0 7 -80 6 -177 -3 -160
-5 -178 -20 -181 -14 -3 -18 3 -18 30 0 128 -148 285 -274 290 -55 3 -91 -20
-100 -63 -11 -55 -7 -654 5 -709 13 -61 37 -80 101 -80 76 0 151 34 224 102
52 49 65 57 70 43 5 -11 -6 -29 -32 -57 -93 -95 -174 -128 -320 -128 -183 0
-319 72 -412 217 -42 65 -62 149 -62 259 0 227 121 388 335 444 88 24 175 25
246 4z m-2195 -390 c3 -92 2 -90 33 -47 54 74 134 108 189 79 56 -29 76 -94
48 -159 -18 -44 -56 -67 -109 -67 -59 0 -93 27 -105 83 l-8 42 -22 -35 c-20
-32 -22 -48 -22 -207 l0 -173 40 0 c29 0 40 -4 40 -15 0 -13 -33 -15 -235 -15
-202 0 -235 2 -235 15 0 11 11 15 40 15 l40 0 0 250 0 250 -40 0 c-22 0 -40 5
-40 10 0 6 19 10 43 10 126 1 310 9 315 14 15 16 27 -5 28 -50z m2884 -188 c4
-196 8 -238 20 -246 18 -11 48 -4 73 18 16 14 17 35 15 221 l-3 206 -37 3
c-55 5 -47 22 10 22 130 1 292 9 311 15 l21 6 0 -270 0 -270 35 -3 c20 -2 36
-7 38 -13 1 -6 -67 -11 -185 -13 l-188 -2 0 30 c0 36 -9 37 -58 7 -56 -35 -98
-47 -169 -47 -73 0 -117 16 -153 54 -25 27 -25 29 -28 249 -4 232 -4 237 -49
237 -13 0 -23 5 -23 10 0 6 10 10 23 10 119 1 310 9 315 14 22 23 27 -16 32
-238z m1708 171 l3 -67 57 59 c63 64 105 80 160 60 78 -27 91 -145 21 -203
-24 -20 -42 -26 -79 -26 -41 0 -52 4 -73 30 -14 16 -28 44 -32 62 l-7 32 -24
-40 c-23 -37 -24 -48 -24 -206 l0 -167 40 -3 c22 -2 40 -7 40 -13 0 -6 -85
-11 -230 -13 -200 -2 -230 0 -230 13 0 11 11 15 40 15 l40 0 -2 248 -3 247
-37 3 c-21 2 -38 7 -38 13 0 5 53 9 123 10 67 1 147 4 177 9 30 4 60 6 65 5 6
-1 11 -32 13 -68z m-5908 52 c82 -13 149 -46 178 -89 21 -31 22 -43 22 -206 0
-146 2 -174 15 -174 8 0 19 9 26 21 7 15 14 18 21 11 16 -16 -13 -56 -63 -89
-32 -21 -55 -27 -119 -31 -70 -4 -83 -2 -124 21 l-45 25 -58 -24 c-64 -26
-160 -32 -226 -13 -52 14 -112 76 -121 123 -11 59 22 116 87 152 47 25 62 28
147 29 52 0 110 -3 128 -7 l32 -7 0 88 c0 49 -3 97 -6 106 -10 25 -59 45 -111
45 -47 0 -48 -1 -27 -18 44 -35 56 -90 30 -141 -36 -70 -162 -66 -195 6 -34
74 10 144 109 174 38 11 226 10 300 -2z m792 -4 c90 -31 133 -118 94 -190 -59
-109 -234 -36 -196 81 14 41 53 74 89 75 49 1 -9 18 -66 18 -84 1 -83 3 -83
-242 0 -249 2 -257 77 -257 55 0 99 20 143 65 38 39 50 43 50 18 0 -27 -80
-92 -134 -108 -64 -19 -188 -19 -254 0 -62 19 -126 66 -167 123 -27 40 -30 50
-30 130 0 100 16 143 75 202 37 37 112 78 164 91 57 13 191 10 238 -6z m1429
-13 c122 -48 189 -142 189 -265 0 -78 -14 -118 -60 -171 -64 -72 -163 -106
-316 -106 -207 0 -344 82 -374 224 -31 149 62 284 230 332 72 21 262 13 331
-14z m3017 18 c162 -38 261 -159 249 -307 -13 -171 -157 -260 -408 -251 -106
4 -122 7 -181 36 -79 39 -142 104 -158 164 -15 53 -8 143 14 190 35 73 131
145 223 167 52 12 209 13 261 1z m1521 -25 c63 -35 115 -95 142 -165 32 -85
42 -80 -157 -80 l-176 0 4 -106 c3 -97 5 -107 27 -125 13 -10 37 -19 55 -19
46 0 129 43 184 94 54 50 62 54 62 29 0 -24 -81 -98 -142 -130 -49 -26 -62
-28 -168 -28 -106 0 -119 2 -167 27 -108 57 -160 125 -170 223 -14 133 77 250
232 302 25 8 75 12 130 10 78 -2 97 -7 144 -32z m-5645 -1219 l59 -29 54 27
c29 14 58 26 63 26 6 0 10 -68 10 -175 0 -142 -3 -175 -14 -175 -8 0 -16 16
-20 43 -22 143 -161 277 -288 277 -38 0 -50 -5 -67 -26 -20 -26 -21 -38 -21
-386 0 -394 3 -421 55 -434 89 -22 220 27 289 108 23 26 40 38 51 35 24 -10
18 -21 -44 -81 -70 -66 -126 -92 -227 -107 -153 -23 -306 24 -413 126 -70 67
-107 132 -126 222 -49 230 39 439 224 532 85 43 120 50 246 48 99 -2 116 -5
169 -31z m2707 -4 c56 -50 38 -132 -39 -171 -114 -57 -227 -23 -227 69 0 73
76 128 177 129 50 1 62 -3 89 -27z m491 -303 c29 -6 70 -20 91 -31 l38 -19 50
30 49 31 0 -120 c0 -96 -3 -120 -14 -120 -8 0 -16 14 -20 33 -8 43 -58 103
-109 128 -55 29 -148 37 -166 15 -7 -9 -11 -22 -8 -29 2 -7 58 -41 123 -76
139 -74 179 -102 205 -145 26 -43 26 -127 -2 -175 -63 -113 -255 -143 -431
-69 l-48 20 -34 -26 c-19 -14 -37 -26 -40 -26 -3 0 -6 54 -6 120 0 97 3 120
14 120 8 0 18 -14 21 -32 22 -100 134 -174 252 -166 52 3 76 26 57 55 -13 21
-22 26 -120 63 -201 78 -273 206 -184 329 34 46 92 80 159 91 66 11 65 11 123
-1z m-2390 -34 c132 -42 212 -146 212 -274 0 -125 -65 -205 -204 -253 -87 -30
-258 -32 -340 -4 -101 35 -166 89 -196 164 -20 53 -16 171 9 219 39 74 138
142 239 163 64 14 215 5 280 -15z m638 -15 l0 -40 38 23 c113 70 220 74 312
12 l51 -34 39 25 c84 56 181 67 270 31 42 -17 59 -31 77 -62 21 -38 23 -51 23
-242 l0 -203 40 0 c29 0 40 -4 40 -15 0 -13 -30 -15 -210 -15 -180 0 -210 2
-210 15 0 8 9 15 20 15 19 0 20 7 20 209 0 115 -3 216 -6 225 -8 21 -39 20
-75 -1 l-29 -17 0 -208 0 -208 25 0 c16 0 25 -6 25 -15 0 -13 -28 -15 -195
-15 -167 0 -195 2 -195 15 0 8 9 15 20 15 20 0 20 5 18 216 -3 193 -5 218 -20
228 -14 8 -24 7 -45 -6 l-28 -17 -3 -210 c-2 -206 -2 -211 18 -211 11 0 20 -7
20 -15 0 -13 -31 -15 -216 -15 -168 0 -215 3 -212 13 3 6 24 13 47 15 l42 3
-3 242 -3 242 -39 5 c-22 3 -41 11 -43 17 -4 9 34 13 154 16 87 1 175 4 196 5
37 2 37 2 37 -38z m1300 -225 l0 -265 45 0 c33 0 45 -4 45 -15 0 -13 -33 -15
-241 -15 -188 0 -240 3 -237 13 3 6 23 13 46 15 l42 3 0 244 0 244 -40 3 c-22
2 -41 8 -43 13 -1 6 59 12 158 15 88 3 175 7 193 8 l32 2 0 -265z m1262 254
c167 -35 268 -148 268 -298 0 -55 -35 -135 -76 -173 -77 -71 -242 -110 -385
-90 -140 20 -229 74 -275 168 -23 47 -26 63 -22 122 8 111 60 186 163 237 87
43 219 57 327 34z"/>
<path d="M6244 7249 c-17 -19 -19 -41 -22 -198 -4 -230 9 -266 84 -226 l34 18
0 204 0 203 -26 10 c-37 14 -49 13 -70 -11z"/>
<path d="M3704 7286 c-18 -13 -19 -30 -22 -223 -2 -133 1 -222 8 -245 10 -35
14 -38 48 -38 21 0 43 5 50 12 9 9 12 77 12 244 0 198 -2 235 -16 248 -19 20
-54 20 -80 2z"/>
<path d="M4954 7017 c-3 -8 -3 -55 -2 -107 4 -110 14 -125 72 -97 l36 17 0 94
c0 103 -2 106 -66 106 -20 0 -37 -6 -40 -13z"/>
<path d="M7100 7280 c-17 -17 -20 -33 -20 -115 l0 -95 60 0 60 0 0 99 c0 92
-2 101 -22 115 -30 21 -54 20 -78 -4z"/>
<path d="M11290 7032 c-30 -9 -40 -36 -40 -106 0 -87 7 -114 30 -121 20 -6 71
11 82 28 13 21 9 174 -4 184 -17 14 -50 21 -68 15z"/>
<path d="M14134 7017 c-3 -8 -3 -55 -2 -107 4 -110 14 -125 72 -97 l36 17 0
94 c0 103 -2 106 -66 106 -20 0 -37 -6 -40 -13z"/>
<path d="M4792 5438 c-8 -8 -12 -46 -12 -104 0 -111 9 -124 70 -105 l40 12 0
98 c0 81 -3 100 -16 105 -26 10 -69 7 -82 -6z"/>
<path d="M6985 5706 c-19 -14 -20 -26 -20 -250 0 -254 1 -259 54 -259 60 0 61
3 61 257 0 127 -4 237 -8 243 -13 21 -65 26 -87 9z"/>
<path d="M10060 5700 c-19 -19 -20 -33 -20 -245 0 -212 1 -226 20 -245 15 -15
28 -19 48 -14 50 12 52 21 52 265 0 224 0 228 -22 243 -30 21 -54 20 -78 -4z"/>
<path d="M11580 5700 c-17 -17 -20 -33 -20 -115 l0 -95 60 0 60 0 0 93 c0 59
-5 99 -13 110 -19 27 -63 31 -87 7z"/>
<path d="M6699 4124 c-11 -14 -14 -63 -14 -246 0 -216 1 -231 19 -244 25 -18
57 -18 82 0 18 13 19 30 22 233 3 249 -1 266 -59 271 -24 2 -40 -2 -50 -14z"/>
<path d="M9950 4121 c-6 -12 -10 -109 -10 -245 0 -191 2 -227 16 -240 21 -22
60 -20 84 4 19 19 20 33 20 241 0 133 -4 228 -10 240 -8 14 -21 19 -50 19 -29
0 -42 -5 -50 -19z"/>
<path d="M16361 3460 c-8 -14 -26 -47 -41 -75 -16 -27 -50 -88 -77 -135 -27
-47 -52 -92 -56 -100 -4 -8 -13 -24 -20 -35 -7 -11 -43 -74 -80 -140 -81 -143
-80 -141 -195 -325 -50 -80 -123 -199 -163 -265 -65 -108 -160 -252 -258 -390
-19 -27 -86 -126 -149 -220 -126 -188 -116 -175 -208 -300 -229 -314 -483
-651 -580 -768 -8 -10 -54 -69 -102 -130 -48 -62 -94 -121 -104 -132 -9 -11
-52 -63 -95 -116 -43 -53 -122 -147 -177 -210 l-98 -114 1208 -3 c664 -1 1209
-1 1211 1 2 2 2 786 1 1743 -3 1490 -5 1735 -17 1714z"/>
<path d="M0 1242 l0 -1242 1017 0 1016 0 -179 173 c-283 273 -472 463 -585
587 -57 63 -113 124 -124 135 -48 50 -255 297 -326 389 -141 183 -203 266
-247 329 -124 179 -201 291 -233 343 -65 105 -278 438 -309 484 l-30 44 0
-1242z"/>
</g>
</svg>
